<svg width="400" height="400" viewBox="0 0 400 400" fill="none" xmlns="http://www.w3.org/2000/svg">
    <path d="M67.757 208.36L60.6859 215.431L67.757 222.502L168.165 322.909L175.236 329.98L182.307 322.909L292.689 212.527C307.98 197.236 322.264 171.148 329.248 145.388C332.765 132.417 334.589 118.967 333.481 106.555C332.372 94.1266 328.239 82.0631 319.176 73L318.924 72.7478C309.877 63.7006 297.764 59.4927 285.269 58.2555C272.772 57.0181 259.184 58.661 246.053 62.0089C220.002 68.6508 193.514 82.6028 178.14 97.9769L67.757 208.36Z" stroke="black" stroke-width="20"/>
    <path d="M167.949 335.707L56.2168 223.975C49.5454 217.304 38.7345 217.299 32.0685 223.965C25.4025 230.631 25.4069 241.442 32.0784 248.114L143.81 359.845C150.482 366.517 161.292 366.521 167.958 359.855C174.624 353.189 174.62 342.378 167.949 335.707Z" fill="#C13D3A"/>
</svg>
