<svg width="612" height="612" viewBox="0 0 612 612" fill="none" xmlns="http://www.w3.org/2000/svg">
<path d="M612 306C612 137.004 474.995 0 306 0C137.004 0 0 137.004 0 306C0 474.995 137.004 612 306 612C474.995 612 612 474.995 612 306ZM27.818 306C27.818 152.36 152.36 27.818 306 27.818C459.64 27.818 584.182 152.36 584.182 306C584.182 459.64 459.64 584.182 306 584.182C152.36 584.182 27.818 459.64 27.818 306Z" fill="#C14942"/>
<path d="M317.739 482.617V306H376.018L385.226 247.471H317.739V218.123C317.739 202.851 322.746 188.274 344.667 188.274H388.48V129.856H326.279C273.981 129.856 259.71 164.294 259.71 212.031V247.444H223.825V306H259.71V482.617H317.739V482.617Z" fill="#C14942"/>
</svg>
