<svg width="400" height="400" viewBox="0 0 400 400" fill="none" xmlns="http://www.w3.org/2000/svg">
    <path d="M224.535 104.419C228.607 104.419 231.891 107.693 231.891 111.765C231.891 116.441 227.623 119.882 223.063 118.962C219.654 118.274 217.179 115.29 217.179 111.765C217.179 107.699 220.457 104.419 224.535 104.419Z" fill="black"/>
    <path d="M33.0898 192.647C20.9095 192.647 11 182.751 11 170.588C11 163.471 11 118.929 11 111.765C11 91.4926 27.5158 75 47.8164 75H380.637C384.703 75 388 78.2919 388 82.3529V126.471C388 138.634 378.09 148.529 365.91 148.529H358.547V170.588C358.547 182.751 348.637 192.647 336.457 192.647H231.487C227.812 225.689 199.68 251.471 165.629 251.471H128.992L116.475 307.725C114.214 317.896 105.347 325 94.9119 325H36.7199C22.578 325 12.0905 311.917 15.1595 298.155C38.8126 191.674 37.5446 197.99 37.5446 197.059C37.5446 194.937 35.8415 192.647 33.0898 192.647ZM365.91 133.824C369.97 133.824 373.273 130.525 373.273 126.471V119.118H253.988C249.922 119.118 246.625 115.826 246.625 111.765C246.625 107.704 249.922 104.412 253.988 104.412H373.273V89.7059H47.8164C35.6361 89.7059 25.7266 99.6015 25.7266 111.765V133.824H50.6292L41.2307 115.053C39.412 111.421 40.8861 107.004 44.5243 105.187C48.161 103.371 52.5841 104.843 54.4029 108.476L67.0935 133.824H80.0823L70.6838 115.053C68.8651 111.421 70.3392 107.004 73.9774 105.187C77.6141 103.371 82.0373 104.843 83.856 108.476L96.5466 133.824H109.535L100.137 115.053C98.3182 111.421 99.7923 107.004 103.431 105.187C107.067 103.371 111.49 104.843 113.309 108.476L126 133.824H138.989L129.59 115.053C127.771 111.421 129.245 107.004 132.884 105.187C136.522 103.371 140.944 104.843 142.762 108.476L155.453 133.824C163.873 133.824 358.727 133.824 365.91 133.824ZM165.629 236.765C191.549 236.765 213.053 217.556 216.637 192.647C200.976 192.647 187.582 192.647 171.615 192.647C167.753 192.647 163.906 193.274 160.244 194.459C163.746 202.174 171.492 207.353 180.355 207.353C184.421 207.353 187.719 210.645 187.719 214.706C187.719 218.767 184.421 222.059 180.355 222.059C166.04 222.059 153.475 213.944 147.399 201.729C141.541 206.831 137.4 213.687 135.676 221.433L132.264 236.765H165.629ZM29.5341 301.348C28.5099 305.94 32.0163 310.294 36.7199 310.294H94.9119C98.3344 310.294 101.356 307.874 102.098 304.537L121.3 218.243C123.496 208.376 128.497 199.467 135.554 192.573H51.7499C52.4354 195.454 52.4339 198.406 51.8088 201.242L29.5341 301.348ZM336.457 177.941C340.517 177.941 343.82 174.643 343.82 170.588V148.529C333.916 148.529 55.7761 148.529 25.7266 148.529V170.588C25.7266 174.643 29.0297 177.941 33.0898 177.941C49.5703 177.941 327.041 177.941 336.457 177.941Z" fill="black"/>
    <path d="M47.8891 286.64L64.257 213.11C65.0058 209.746 67.9938 207.353 71.445 207.353H99.4623C101.696 207.353 103.808 208.366 105.206 210.105C106.603 211.845 107.135 214.124 106.65 216.302L90.2825 289.831C89.5336 293.195 86.5456 295.588 83.0944 295.588H55.0772C50.372 295.588 46.8671 291.231 47.8891 286.64ZM77.1876 280.882L90.2825 222.059V259.191L83.0944 280.882H77.1876Z" fill="#C13D3A"/>
</svg>
