<svg width="612" height="612" viewBox="0 0 612 612" fill="none" xmlns="http://www.w3.org/2000/svg">
<path d="M391.861 483H219.14C169.438 483 129 442.436 129 392.594V219.383C129 169.541 169.438 129 219.14 129H391.861C441.562 129 482 169.541 482 219.383V392.594C482 442.436 441.562 483 391.861 483ZM219.14 149.219C180.554 149.219 149.174 180.688 149.174 219.372V392.582C149.174 431.277 180.565 462.746 219.14 462.746H391.861C430.446 462.746 461.815 431.266 461.815 392.582V219.383C461.815 180.688 430.435 149.231 391.861 149.231H219.14V149.219Z" fill="#C14942"/>
<path d="M471.911 261.828H347.584C342.015 261.828 337.491 257.292 337.491 251.707C337.491 246.122 342.003 241.586 347.584 241.586H471.899C477.468 241.586 481.992 246.111 481.992 251.707C482.003 257.292 477.48 261.828 471.911 261.828Z" fill="#C14942"/>
<path d="M260.805 261.828H139.081C133.512 261.828 129 257.292 129 251.719C129 246.134 133.512 241.597 139.081 241.597H260.805C266.374 241.597 270.898 246.122 270.898 251.719C270.886 257.292 266.374 261.828 260.805 261.828Z" fill="#C14942"/>
<path d="M305.494 384.878C262.123 384.878 226.822 349.499 226.822 305.994C226.822 262.489 262.112 227.1 305.494 227.1C348.864 227.1 384.154 262.478 384.154 305.994C384.154 349.499 348.876 384.878 305.494 384.878ZM305.494 247.331C273.238 247.331 246.984 273.659 246.984 306.006C246.984 338.352 273.238 364.658 305.494 364.658C337.749 364.658 363.98 338.352 363.98 306.006C363.98 273.659 337.749 247.331 305.494 247.331Z" fill="#C14942"/>
<path d="M419.465 235.694H374.083C368.514 235.694 363.99 231.169 363.99 225.584V180.062C363.99 174.477 368.514 169.952 374.083 169.952H419.465C425.034 169.952 429.546 174.477 429.546 180.062V225.584C429.535 231.18 425.034 235.694 419.465 235.694ZM384.153 215.463H409.373V190.183H384.153V215.463Z" fill="#C14942"/>
<path d="M612 306C612 137.004 474.995 0 306 0C137.004 0 0 137.004 0 306C0 474.995 137.004 612 306 612C474.995 612 612 474.995 612 306ZM27.818 306C27.818 152.36 152.36 27.818 306 27.818C459.64 27.818 584.182 152.36 584.182 306C584.182 459.64 459.64 584.182 306 584.182C152.36 584.182 27.818 459.64 27.818 306Z" fill="#C14942"/>
</svg>
