<svg width="1711" height="434" viewBox="0 0 1711 434" fill="none" xmlns="http://www.w3.org/2000/svg">
<path d="M547.317 281.267H522V159.909H591.561V180.993H547.317V212.288H588.489V233.288H547.317V281.267ZM725.453 220.422C725.453 240.51 720.472 255.95 710.511 266.741C700.55 277.532 686.273 282.927 667.679 282.927C649.085 282.927 634.808 277.532 624.847 266.741C614.886 255.95 609.906 240.455 609.906 220.256C609.906 200.058 614.886 184.646 624.847 174.021C634.863 163.34 649.196 158 667.845 158C686.494 158 700.744 163.368 710.594 174.104C720.5 184.839 725.453 200.279 725.453 220.422ZM636.883 220.422C636.883 233.98 639.456 244.19 644.603 251.052C649.749 257.914 657.442 261.345 667.679 261.345C688.21 261.345 698.475 247.704 698.475 220.422C698.475 193.085 688.265 179.416 667.845 179.416C657.608 179.416 649.888 182.875 644.686 189.792C639.484 196.654 636.883 206.864 636.883 220.422ZM848.719 281.267H819.334L791.112 235.364L762.889 281.267H735.331L775.589 218.679L737.904 159.909H766.292L792.44 203.572L818.089 159.909H845.814L807.713 220.09L848.719 281.267ZM978.045 248.977C978.045 259.657 974.172 267.986 966.424 273.962C958.677 279.939 948.163 282.927 934.881 282.927C920.493 282.927 909.426 281.073 901.678 277.366V263.752C906.659 265.855 912.082 267.515 917.948 268.733C923.814 269.95 929.624 270.559 935.379 270.559C944.787 270.559 951.87 268.788 956.629 265.246C961.388 261.649 963.768 256.669 963.768 250.305C963.768 246.099 962.91 242.668 961.195 240.012C959.535 237.301 956.712 234.81 952.728 232.541C948.799 230.273 942.795 227.699 934.715 224.822C923.426 220.782 915.347 215.995 910.477 210.461C905.663 204.927 903.255 197.705 903.255 188.796C903.255 179.444 906.769 172.001 913.797 166.467C920.825 160.933 930.122 158.166 941.688 158.166C953.752 158.166 964.847 160.38 974.974 164.807L970.575 177.092C960.558 172.886 950.819 170.783 941.356 170.783C933.885 170.783 928.047 172.388 923.841 175.598C919.636 178.807 917.533 183.262 917.533 188.962C917.533 193.168 918.307 196.626 919.857 199.338C921.406 201.995 924.007 204.457 927.66 206.726C931.367 208.94 937.012 211.402 944.593 214.114C957.321 218.651 966.065 223.521 970.824 228.723C975.638 233.925 978.045 240.676 978.045 248.977ZM1095 281.267H1080.89V224.158H1016.98V281.267H1002.86V159.909H1016.98V211.54H1080.89V159.909H1095V281.267ZM1233.71 220.422C1233.71 239.846 1228.78 255.12 1218.93 266.243C1209.14 277.366 1195.5 282.927 1178.01 282.927C1160.14 282.927 1146.33 277.476 1136.59 266.575C1126.91 255.618 1122.06 240.178 1122.06 220.256C1122.06 200.5 1126.93 185.199 1136.67 174.353C1146.41 163.451 1160.25 158 1178.18 158C1195.61 158 1209.22 163.534 1219.02 174.602C1228.81 185.669 1233.71 200.943 1233.71 220.422ZM1137 220.422C1137 236.858 1140.49 249.337 1147.46 257.859C1154.49 266.326 1164.67 270.559 1178.01 270.559C1191.46 270.559 1201.61 266.326 1208.47 257.859C1215.34 249.392 1218.77 236.913 1218.77 220.422C1218.77 204.097 1215.34 191.729 1208.47 183.317C1201.67 174.851 1191.57 170.617 1178.18 170.617C1164.73 170.617 1154.49 174.878 1147.46 183.4C1140.49 191.867 1137 204.208 1137 220.422ZM1366.19 220.422C1366.19 239.846 1361.26 255.12 1351.41 266.243C1341.62 277.366 1327.98 282.927 1310.49 282.927C1292.62 282.927 1278.81 277.476 1269.07 266.575C1259.39 255.618 1254.54 240.178 1254.54 220.256C1254.54 200.5 1259.41 185.199 1269.15 174.353C1278.89 163.451 1292.73 158 1310.66 158C1328.09 158 1341.7 163.534 1351.5 174.602C1361.29 185.669 1366.19 200.943 1366.19 220.422ZM1269.49 220.422C1269.49 236.858 1272.97 249.337 1279.94 257.859C1286.97 266.326 1297.15 270.559 1310.49 270.559C1323.94 270.559 1334.09 266.326 1340.96 257.859C1347.82 249.392 1351.25 236.913 1351.25 220.422C1351.25 204.097 1347.82 191.729 1340.96 183.317C1334.15 174.851 1324.05 170.617 1310.66 170.617C1297.21 170.617 1286.97 174.878 1279.94 183.4C1272.97 191.867 1269.49 204.208 1269.49 220.422ZM1430.69 281.267H1416.58V172.443H1378.14V159.909H1469.12V172.443H1430.69V281.267ZM1582.26 281.267H1566.16L1499.83 179.416H1499.17C1500.05 191.369 1500.5 202.327 1500.5 212.288V281.267H1487.46V159.909H1503.4L1569.56 261.345H1570.23C1570.12 259.851 1569.87 255.064 1569.48 246.985C1569.09 238.85 1568.95 233.039 1569.06 229.553V159.909H1582.26V281.267ZM1669.01 217.683H1710.26V276.702C1703.84 278.749 1697.31 280.299 1690.67 281.35C1684.03 282.401 1676.34 282.927 1667.59 282.927C1649.22 282.927 1634.92 277.476 1624.68 266.575C1614.44 255.618 1609.32 240.289 1609.32 220.588C1609.32 207.971 1611.84 196.931 1616.88 187.468C1621.97 177.95 1629.27 170.7 1638.79 165.72C1648.31 160.684 1659.46 158.166 1672.24 158.166C1685.19 158.166 1697.26 160.546 1708.43 165.305L1702.96 177.756C1692 173.107 1681.46 170.783 1671.33 170.783C1656.55 170.783 1645.02 175.183 1636.72 183.981C1628.41 192.78 1624.26 204.983 1624.26 220.588C1624.26 236.968 1628.25 249.392 1636.22 257.859C1644.24 266.326 1656 270.559 1671.5 270.559C1679.91 270.559 1688.12 269.591 1696.15 267.654V230.3H1669.01V217.683Z" fill="white"/>
<circle cx="217" cy="217" r="192" stroke="#C13D3A" stroke-width="50"/>
<circle cx="216.5" cy="218.5" r="110.5" fill="#E2503A"/>
<path fill-rule="evenodd" clip-rule="evenodd" d="M139.549 152.836C146.255 145.59 182.211 161.711 195.319 167.94C202.571 164.053 210.309 161.75 218.398 161.913C226.074 162.068 233.403 164.329 240.278 167.969C255.343 160.95 289.225 146.247 296.15 152.558C303.538 159.291 286.818 195.744 280.71 208.355C290.619 223.174 296.333 235.805 296.333 235.805L216.656 283L139.366 236.168C139.366 236.168 145.17 223.38 155.143 208.417C148.096 193.535 133.171 159.728 139.549 152.836Z" fill="white"/>
<ellipse cx="12.4731" cy="4.79725" rx="12.4731" ry="4.79725" transform="matrix(0.944179 0.329432 -0.333948 0.942591 177.878 217.515)" fill="black"/>
<ellipse cx="12.4731" cy="4.79725" rx="12.4731" ry="4.79725" transform="matrix(-0.944179 0.329432 0.333948 0.942591 255.673 217.831)" fill="black"/>
</svg>
