<svg width="612" height="612" viewBox="0 0 612 612" fill="none" xmlns="http://www.w3.org/2000/svg">
<path d="M447.232 252.033C447.232 188.58 394.573 129.466 314.568 129.466C214.979 129.466 164.795 202.35 164.795 263.133C164.795 299.936 178.426 332.678 207.718 344.863C212.503 346.866 216.815 344.919 218.206 339.521C219.152 335.766 221.46 326.28 222.462 322.358C223.881 316.989 223.324 315.125 219.458 310.423C211.001 300.214 205.632 287.084 205.632 268.445C205.632 214.394 245.245 165.991 308.81 165.991C365.086 165.991 396.02 201.097 396.02 247.971C396.02 309.672 369.287 361.72 329.563 361.72C307.614 361.72 291.229 343.221 296.487 320.522C302.774 293.427 314.986 264.162 314.986 244.606C314.986 227.108 305.778 212.476 286.723 212.476C264.302 212.476 246.303 236.149 246.303 267.862C246.303 288.058 253.007 301.716 253.007 301.716C253.007 301.716 230.057 400.944 226.051 418.302C222.406 434.131 221.85 451.517 222.351 466.205C223.881 479.391 236.65 490.129 247.721 475.663C255.51 462.95 263.884 446.899 268.223 430.82C270.81 421.306 282.967 372.012 282.967 372.012C290.255 386.2 311.536 398.69 334.18 398.69C401.527 398.662 447.232 335.96 447.232 252.033Z" fill="#C14942"/>
<path d="M612 306C612 137.004 474.995 0 306 0C137.004 0 0 137.004 0 306C0 474.995 137.004 612 306 612C474.995 612 612 474.995 612 306ZM27.818 306C27.818 152.36 152.36 27.818 306 27.818C459.64 27.818 584.182 152.36 584.182 306C584.182 459.64 459.64 584.182 306 584.182C152.36 584.182 27.818 459.64 27.818 306Z" fill="#C14942"/>
</svg>
