<svg width="400" height="400" viewBox="0 0 400 400" fill="none" xmlns="http://www.w3.org/2000/svg">
    <path d="M154.36 145.303H116.173C114.211 145.303 112.643 146.874 112.643 148.837V237.377C112.643 239.34 114.211 240.911 116.173 240.911H154.36C156.321 240.911 157.89 239.34 157.89 237.377V148.837C157.89 146.874 156.321 145.303 154.36 145.303ZM150.83 233.842H119.702V152.372H150.866V233.842H150.83Z" fill="#2C2F33"/>
    <path d="M283.826 240.911C285.787 240.911 287.356 239.34 287.356 237.377V124.81C287.356 122.847 285.787 121.276 283.826 121.276H245.638C243.677 121.276 242.108 122.847 242.108 124.81V237.341C242.108 239.305 243.677 240.875 245.638 240.875H283.826V240.911ZM249.168 128.345H280.331V233.842H249.168V128.345Z" fill="#2C2F33"/>
    <rect x="176.924" y="67.5454" width="46.1508" height="173.366" rx="5" fill="#C13D3A"/>
    <path fill-rule="evenodd" clip-rule="evenodd" d="M165.398 274.759C162.205 274.759 159.618 277.346 159.618 280.538C159.618 283.729 162.205 286.316 165.398 286.316H194.232V309.34L194.181 309.39L150.512 353.135C148.259 355.392 148.259 359.051 150.512 361.307C152.765 363.564 156.417 363.564 158.67 361.307L194.232 325.684V355.673C194.232 358.859 196.815 361.442 200 361.442C203.187 361.442 205.77 358.859 205.77 355.673V325.861L241.156 361.307C243.408 363.564 247.061 363.564 249.314 361.307C251.567 359.051 251.567 355.392 249.314 353.135L205.77 309.516V286.316H234.604C237.795 286.316 240.382 283.729 240.382 280.538C240.382 277.346 237.795 274.759 234.604 274.759H165.398Z" fill="black"/>
    <path fill-rule="evenodd" clip-rule="evenodd" d="M36 45.5C36 40.8057 39.8057 37 44.5 37H52.4824H69.4824H80H328H330.518H347.518H355.5C360.194 37 364 40.8057 364 45.5C364 50.1943 360.194 54 355.5 54H347.518V240.201C347.518 252.904 337.22 263.201 324.518 263.201H75.4824C62.7803 263.201 52.4824 252.904 52.4824 240.201V54H44.5C39.8057 54 36 50.1943 36 45.5ZM330.518 54H328H80H69.4824V240.201C69.4824 243.515 72.1689 246.201 75.4824 246.201H324.518C327.831 246.201 330.518 243.515 330.518 240.201V54Z" fill="black"/>
</svg>
