<svg width="612" height="612" viewBox="0 0 612 612" fill="none" xmlns="http://www.w3.org/2000/svg">
<path d="M437.219 245.162C437.219 242.074 437.163 239.014 437.024 235.982C450.238 226.134 461.699 213.811 470.768 199.707C458.639 205.16 445.62 208.804 431.933 210.333C445.898 201.737 456.608 187.995 461.671 171.499C448.596 179.427 434.131 185.102 418.747 188.051C406.424 174.03 388.843 165.101 369.397 164.767C332.065 164.155 301.799 195.701 301.799 235.23C301.799 240.849 302.383 246.302 303.551 251.559C247.331 247.943 197.509 218.678 164.182 174.559C158.368 185.13 155.03 197.481 155.03 210.723C155.03 235.76 166.964 258.014 185.101 271.144C174.002 270.644 163.598 267.278 154.474 261.769C154.474 262.075 154.474 262.381 154.474 262.687C154.474 297.683 177.786 327.003 208.719 333.846C203.044 335.459 197.063 336.294 190.915 336.267C186.548 336.239 182.319 335.766 178.202 334.875C186.798 363.556 211.779 384.503 241.349 385.198C218.204 404.392 189.051 415.853 157.394 415.77C151.941 415.77 146.545 415.409 141.259 414.741C171.192 435.271 206.715 447.232 244.909 447.232C369.23 447.261 437.219 339.048 437.219 245.162Z" fill="#C14942"/>
<path d="M612 306C612 137.004 474.995 0 306 0C137.004 0 0 137.004 0 306C0 474.995 137.004 612 306 612C474.995 612 612 474.995 612 306ZM27.818 306C27.818 152.36 152.36 27.818 306 27.818C459.64 27.818 584.182 152.36 584.182 306C584.182 459.64 459.64 584.182 306 584.182C152.36 584.182 27.818 459.64 27.818 306Z" fill="#C14942"/>
</svg>
